<?xml version="1.0" encoding="utf-8"?>
<!-- Generator: Adobe Illustrator 16.0.0, SVG Export Plug-In . SVG Version: 6.00 Build 0)  -->
<!DOCTYPE svg PUBLIC "-//W3C//DTD SVG 1.1//EN" "http://www.w3.org/Graphics/SVG/1.1/DTD/svg11.dtd">
<svg version="1.1"
	 id="Layer_1" shape-rendering="geometricPrecision" text-rendering="geometricPrecision" image-rendering="optimizeQuality"
	 xmlns="http://www.w3.org/2000/svg" xmlns:xlink="http://www.w3.org/1999/xlink" x="0px" y="0px" width="612px" height="792px"
	 viewBox="0 0 612 792" enable-background="new 0 0 612 792" xml:space="preserve">
<path fill="#0D6A00" d="M165.969,346.627l73.32-0.98l5.462,1.422c25.724,14.834,48.745,33.349,68.683,55.355
	c26.31-42.326,54.327-81.186,83.936-116.925c32.429-39.17,66.842-74.695,102.987-107.124l7.16-2.75h80.002l-16.124,17.918
	c-49.582,55.092-94.562,112.024-135.202,170.738c-40.664,58.773-77.014,119.436-109.335,181.879l-10.053,19.412l-9.252-19.771
	C273.81,473.379,226.237,411.7,159.993,366.219L165.969,346.627L165.969,346.627z M305.976,90.018
	c45.959,0,91.059,10.232,132.489,30.122c2.665,1.279,3.813,4.519,2.534,7.196c-0.371,0.765-0.896,1.411-1.53,1.913l-44.872,36.72
	c-1.556,1.302-3.706,1.634-5.582,0.86c-26.607-9.634-54.686-14.475-82.979-14.475c-64.87,0-126.44,25.448-172.292,71.348
	c-45.888,45.912-71.36,107.375-71.36,172.292c0,64.882,25.448,126.404,71.348,172.28c45.924,45.9,107.375,71.372,172.305,71.372
	c64.81,0,126.452-25.472,172.269-71.36c45.911-45.888,71.359-107.387,71.359-172.292c0-15.778-1.446-31.305-4.482-46.809
	c-0.322-1.686,0.18-3.371,1.231-4.578l39.577-50.155c1.864-2.319,5.283-2.666,7.602-0.801c0.873,0.705,1.459,1.625,1.77,2.63
	C606.418,328.351,612,362.083,612,395.994c0,81.317-32.118,158.845-89.625,216.352c-57.494,57.482-135.046,89.637-216.339,89.637
	c-81.317,0-158.845-32.143-216.352-89.637l-0.215-0.239C32.046,554.6,0,477.264,0,395.994c0-81.305,32.118-158.833,89.625-216.34
	l0.239-0.215C147.37,122.064,224.743,90.018,305.976,90.018z"/>
</svg>
