<?xml version="1.0" encoding="utf-8"?>
<!-- Generator: Adobe Illustrator 16.0.0, SVG Export Plug-In . SVG Version: 6.00 Build 0)  -->
<!DOCTYPE svg PUBLIC "-//W3C//DTD SVG 1.1//EN" "http://www.w3.org/Graphics/SVG/1.1/DTD/svg11.dtd">
<svg version="1.1"
	 id="Layer_1" image-rendering="optimizeQuality" text-rendering="geometricPrecision" shape-rendering="geometricPrecision"
	 xmlns="http://www.w3.org/2000/svg" xmlns:xlink="http://www.w3.org/1999/xlink" x="0px" y="0px" width="612px" height="792px"
	 viewBox="0 0 612 792" enable-background="new 0 0 612 792" xml:space="preserve">
<path fill="#FFFFFF" d="M250.307,183.497c36.342,0,69.251,14.758,93.053,38.546c23.788,23.789,38.534,56.711,38.534,93.04
	c0,36.341-14.746,69.251-38.534,93.053c-23.802,23.788-56.711,38.534-93.053,38.534c-36.329,0-69.251-14.746-93.04-38.534
	c-23.789-23.802-38.547-56.711-38.547-93.053c0-36.329,14.758-69.251,38.547-93.04C181.056,198.255,213.978,183.497,250.307,183.497
	z M525.067,560.888v23.045c0,5.428-4.541,9.956-9.943,9.956H475.56v39.564c0,5.416-4.528,9.943-9.943,9.943h-23.058
	c-5.39,0-9.943-4.476-9.943-9.943v-39.564h-39.591c-5.402,0-9.918-4.476-9.918-9.956v-23.045c0-5.468,4.463-9.943,9.918-9.943
	h39.591V511.38c0-5.48,4.476-9.943,9.943-9.943h23.058c5.467,0,9.943,4.541,9.943,9.943v39.564h39.564
	C520.604,550.944,525.067,555.551,525.067,560.888z M454.106,414.504c43.571,0,83.07,17.681,111.635,46.245l0.796,0.849
	C594.632,490.097,612,529.257,612,572.396c0,43.584-17.682,83.097-46.259,111.674l-0.849,0.796
	c-28.485,28.082-67.646,45.463-110.786,45.463c-43.584,0-83.057-17.707-111.621-46.259c-28.63-28.577-46.312-68.09-46.312-111.674
	c0-43.544,17.708-83.018,46.259-111.595C370.997,432.186,410.522,414.504,454.106,414.504L454.106,414.504z M544.21,482.293
	c-23.044-23.058-54.937-37.32-90.104-37.32c-35.18,0-67.098,14.263-90.143,37.32c-23.031,23.019-37.308,54.937-37.308,90.104
	c0,35.181,14.25,67.099,37.308,90.144c23.019,23.019,54.937,37.307,90.143,37.307c34.841,0,66.472-14.001,89.465-36.615l0.639-0.691
	c23.058-23.045,37.32-54.963,37.32-90.144c0-34.841-14.015-66.472-36.628-89.464L544.21,482.293z M257.758,695.685
	c9.865-6.264,19.456-12.945,28.734-19.939c5.246,8.518,11.14,16.619,17.629,24.232c-12.083,9.043-24.624,17.603-37.646,25.537
	c-4.828,3.575-11.588,4.019-16.964,0.626c-58.551-37.216-107.759-82.104-146.515-130.738
	C49.651,528.435,15.998,454.173,4.489,382.69c-11.692-72.487-0.73-142.274,35.324-199.011c14.21-22.379,32.401-42.775,54.624-60.482
	c50.878-40.543,109.129-62.009,166.923-61.513c55.706,0.457,110.878,21.244,158.52,64.723c16.703,15.268,30.783,32.583,42.24,51.492
	c34.658,57.22,45.045,128.664,34.632,202.247c-9.656-2.127-19.521-3.549-29.647-4.215c9.486-66.981,0.339-131.482-30.574-182.517
	c-9.917-16.337-22.184-31.422-36.851-44.81c-41.939-38.26-90.143-56.581-138.581-56.959
	c-50.852-0.417-102.474,18.751-148.002,55.041c-19.43,15.463-35.376,33.379-47.89,53.083
	c-31.996,50.356-41.652,112.874-31.122,178.25c10.688,66.394,42.266,135.801,92.4,198.724
	C161.43,620.574,205.444,661.287,257.758,695.685z M322.129,243.274c-18.347-18.347-43.78-29.765-71.822-29.765
	c-28.029,0-53.462,11.418-71.809,29.765c-18.347,18.347-29.765,43.78-29.765,71.809c0,28.042,11.418,53.475,29.765,71.822
	c18.347,18.347,43.779,29.751,71.809,29.751c28.042,0,53.475-11.404,71.822-29.751c18.347-18.347,29.752-43.779,29.752-71.822
	C351.881,287.054,340.476,261.621,322.129,243.274z"/>
</svg>
