<?xml version="1.0" encoding="utf-8"?>
<!-- Generator: Adobe Illustrator 16.0.0, SVG Export Plug-In . SVG Version: 6.00 Build 0)  -->
<!DOCTYPE svg PUBLIC "-//W3C//DTD SVG 1.1//EN" "http://www.w3.org/Graphics/SVG/1.1/DTD/svg11.dtd">
<svg version="1.1" id="Layer_1" xmlns="http://www.w3.org/2000/svg" xmlns:xlink="http://www.w3.org/1999/xlink" x="0px" y="0px"
	 width="48px" height="48px" viewBox="0 0 48 48" enable-background="new 0 0 48 48" xml:space="preserve">
<path fill="#FFFFFF" d="M22.5,26.1V5.8h3v20.3H22.5z M24,42.1c-2.467,0-4.792-0.475-6.975-1.425
	c-2.183-0.95-4.092-2.241-5.725-3.875s-2.925-3.542-3.875-5.725C6.475,28.892,6,26.566,6,24.1c0-2.667,0.567-5.159,1.7-7.475
	s2.733-4.375,4.8-6.175l2.1,2.1c-1.767,1.434-3.142,3.142-4.125,5.125S9,21.8,9,24.1c0,4.167,1.458,7.708,4.375,10.625
	C16.292,37.642,19.833,39.1,24,39.1c4.166,0,7.709-1.458,10.625-4.375C37.541,31.809,39,28.267,39,24.1
	c0-2.3-0.492-4.458-1.475-6.475c-0.984-2.017-2.325-3.708-4.025-5.075l2.15-2.1c2,1.7,3.559,3.733,4.675,6.1
	C41.441,18.917,42,21.434,42,24.1c0,2.466-0.475,4.792-1.425,6.975c-0.95,2.183-2.233,4.091-3.851,5.725
	c-1.616,1.634-3.516,2.925-5.699,3.875S26.5,42.1,24,42.1z"/>
</svg>
