<?xml version="1.0" encoding="utf-8"?>
<!-- Generator: Adobe Illustrator 16.0.0, SVG Export Plug-In . SVG Version: 6.00 Build 0)  -->
<!DOCTYPE svg PUBLIC "-//W3C//DTD SVG 1.1//EN" "http://www.w3.org/Graphics/SVG/1.1/DTD/svg11.dtd">
<svg version="1.1" id="Layer_1" xmlns="http://www.w3.org/2000/svg" xmlns:xlink="http://www.w3.org/1999/xlink" x="0px" y="0px"
	 width="612px" height="792px" viewBox="0 0 612 792" enable-background="new 0 0 612 792" xml:space="preserve">
<g>
	<path fill="#FFFFFF" d="M31.278,663.152c-26.81-2.051-33.276-21.343-30.805-43.579c14.667-131.211,161.805-93.204,220.944-146.456
		l0,0c29.491,86.738,152.711,89.945,180.362,0c6.361,5.73,15.192,10.566,25.601,14.825c-9.515,5.782-18.504,12.773-26.757,21.027
		c-41.687,41.634-51.938,102.876-30.805,154.183H31.278L31.278,663.152z M220.629,386.117c11.197,17.716,22.92,35.904,37.429,49.257
		c13.983,12.773,31.016,21.5,53.409,21.553c24.392,0.053,42.107-8.937,56.563-22.499c15.035-14.036,26.862-33.328,38.586-52.568
		l31.436-51.728c5.835-13.405,7.99-22.341,6.623-27.598c-0.841-3.102-4.258-4.626-10.093-4.889
		c-1.209-0.052-2.523-0.052-3.785-0.052c-1.366,0.052-2.838,0.158-4.415,0.263c-0.894,0.053-1.63,0-2.419-0.158
		c-2.733,0.158-5.677-0.053-8.568-0.473l10.725-47.627c-79.852,12.564-139.569-46.681-223.889-11.828l6.098,56.09
		c-3.312,0.21-6.571,0.053-9.567-0.368C150.345,295.069,211.114,370.925,220.629,386.117L220.629,386.117L220.629,386.117
		L220.629,386.117z M445.464,283.346c7.728,2.366,12.669,7.254,14.719,15.192c2.261,8.779-0.21,21.185-7.675,38.112l0,0
		c-0.157,0.315-0.263,0.631-0.473,0.894l-31.752,52.306c-12.248,20.187-24.654,40.425-41.266,55.88
		c-17.138,16.086-38.375,26.81-67.34,26.705c-27.021-0.053-47.417-10.356-64.134-25.706
		c-20.186-18.504-113.127-134.89-71.598-162.909c2.05-1.314,4.311-2.523,6.729-3.417c-1.84-24.076-2.471-54.355-1.314-79.746
		c0.63-5.993,1.787-11.985,3.417-18.031c7.097-25.496,25.022-45.998,47.102-60.086c12.196-7.78,25.601-13.615,39.479-17.505
		c8.832-2.523-7.517-30.858,1.577-31.699c44.21-4.574,115.913,35.852,146.823,69.337c15.402,16.717,25.232,38.953,27.336,68.339
		L445.464,283.346L445.464,283.346L445.464,283.346L445.464,283.346L445.464,283.346L445.464,283.346z"/>
	<path fill="#3AAF3C" d="M501.081,497.036c61.295,0,110.972,49.677,110.972,110.972s-49.677,110.972-110.972,110.972
		s-110.972-49.677-110.972-110.972S439.786,497.036,501.081,497.036L501.081,497.036L501.081,497.036L501.081,497.036z
		 M461.392,599.597c8.306,4.784,13.721,8.779,20.134,15.876c16.664-26.862,34.801-41.739,58.351-62.924l2.313-0.895H568
		c-34.59,38.375-61.399,70.074-85.37,116.334c-12.512-26.705-23.656-45.156-48.521-62.241L461.392,599.597L461.392,599.597
		L461.392,599.597z"/>
</g>
</svg>
