<?xml version="1.0" encoding="utf-8"?>
<!-- Generator: Adobe Illustrator 16.0.0, SVG Export Plug-In . SVG Version: 6.00 Build 0)  -->
<!DOCTYPE svg PUBLIC "-//W3C//DTD SVG 1.1//EN" "http://www.w3.org/Graphics/SVG/1.1/DTD/svg11.dtd">
<svg version="1.1" id="Layer_1" xmlns="http://www.w3.org/2000/svg" xmlns:xlink="http://www.w3.org/1999/xlink" x="0px" y="0px"
	 width="612px" height="792px" viewBox="0 0 612 792" enable-background="new 0 0 612 792" xml:space="preserve">
<g>
	<path fill="#FFFFFF" d="M1.594,681.705L50.751,593.5c4.034-6.674,8.467-12.201,13.397-16.137
		c15.489-12.352,54.536,0.448,73.263,3.736c3.735,0.846,127.251-63.402,187.066-63.402l32.821-18.676
		c13.796-7.87,45.621-29.684,59.616-29.386c10.26,0.249,19.922,6.076,28.937,17.93l47.165,71.121L608.713,677.62
		c9.812,6.425-4.383,9.861-10.509,9.861H3.984C-0.896,686.486-0.797,684.344,1.594,681.705L1.594,681.705z M343.852,244.917
		c-1.893-7.022,2.291-14.244,9.313-16.087c7.022-1.893,14.244,2.291,16.087,9.313l4.184,15.639l0.548-0.249l0.149-0.05
		c4.98-1.693,10.857-0.647,15.938,2.391c3.636,2.142,6.923,5.279,9.264,9.164c2.391,3.885,3.835,8.517,3.785,13.597
		c-0.05,7.321-3.237,15.489-11.405,23.558c-0.349,0.349-0.747,0.598-1.195,0.747l-3.586,1.444l37.603,140.201
		c-2.391-0.349-4.831-0.599-7.271-0.647c-5.827-0.149-12.352,1.345-19.125,3.735l-35.81-133.527l-9.214,3.636l0,0l-3.437,1.245
		c-20.021,7.122-34.564,12.252-59.965,5.977c-0.199-0.05-0.349-0.1-0.548-0.199c-17.78-6.873-26.994-16.485-35.959-25.849
		l-1.295-1.345l-11.355,72.316c10.16,6.375,20.32,11.106,29.883,15.589c29.086,13.547,52.992,24.753,58.122,70.424
		c0.946,8.218,0.498,15.938,0.05,24.305v0.149c-0.05,1.195-0.149,2.49-0.249,5.479l-11.057,6.324
		c-12.551,0.798-26.795,3.537-41.736,7.471c0.249-6.025,0.548-12.002,0.847-17.979l0.199-4.135
		c0.249-4.781,0.498-9.164,0.249-13.297c-0.249-3.936-0.946-7.57-2.59-11.107l-0.448-0.946c-1.793-3.935-3.486-7.62-5.977-8.766
		c-4.98-2.341-12.85-5.18-21.814-8.118c-10.26-3.387-21.715-6.823-31.825-9.662c-7.421,24.604-17.481,54.287-28.289,82.576
		c-3.735,9.762-7.521,19.324-11.355,28.488c-3.636,1.594-7.072,3.138-10.409,4.582c-16.585,7.371-28.04,13.148-45.671,9.413
		c-1.843-0.398-3.735-0.747-5.628-1.146c7.072-18.428,14.593-39.196,21.914-60.164c10.957-31.377,21.466-63.401,29.186-89.101
		c-4.582-5.627-9.015-11.953-12.003-18.925c-3.337-7.67-4.931-15.987-3.287-24.902l16.187-87.507l-0.847-0.05
		c-5.628-0.249-10.31-0.448-15.639,1.893c-7.371,3.237-13.148,9.762-19.673,17.083c-2.59,2.938-5.329,6.026-8.467,9.164
		l-0.199,0.199c-2.341,2.391-4.731,4.881-7.022,7.172l-28.588,28.887c-1.245,1.245-3.188,1.245-4.433,0l-31.178-32.722
		c-1.195-1.245-1.146-3.237,0.1-4.433l28.538-28.837c2.44-2.49,4.582-4.682,6.624-6.773l0.299-0.299
		c12.85-14.045,23.358-25.301,36.756-32.871c13.597-7.67,29.883-11.505,54.237-10.409h0.05c8.716,0.1,18.926,1.046,27.393,1.843
		c3.935,0.349,7.471,0.697,10.459,0.896c41.039,2.689,60.264,24.305,75.205,41.089c6.624,7.421,12.302,13.846,18.478,16.784
		c2.889,1.395,7.471-0.548,12.65-2.739c3.138-1.345,6.475-2.739,9.961-3.686c2.291-0.847,3.536-1.345,4.482-1.693
		c1.245-0.498,2.092-0.797,2.59-0.996l12.152-4.831L343.852,244.917L343.852,244.917z M216.65,107.208
		c12.85-4.383,26.297-3.138,37.603,2.391s20.52,15.439,24.952,28.289c4.383,12.85,3.188,26.297-2.391,37.603
		c-5.528,11.306-15.439,20.52-28.289,24.902s-26.297,3.188-37.603-2.391c-11.306-5.528-20.52-15.439-24.902-28.289
		s-3.188-26.297,2.391-37.603C193.89,120.854,203.751,111.64,216.65,107.208L216.65,107.208z"/>
</g>
</svg>
