<?xml version="1.0" encoding="utf-8"?>
<!-- Generator: Adobe Illustrator 16.0.0, SVG Export Plug-In . SVG Version: 6.00 Build 0)  -->
<!DOCTYPE svg PUBLIC "-//W3C//DTD SVG 1.1//EN" "http://www.w3.org/Graphics/SVG/1.1/DTD/svg11.dtd">
<svg version="1.1"
	 id="Layer_1" image-rendering="optimizeQuality" text-rendering="geometricPrecision" shape-rendering="geometricPrecision"
	 xmlns="http://www.w3.org/2000/svg" xmlns:xlink="http://www.w3.org/1999/xlink" x="0px" y="0px" width="612px" height="792px"
	 viewBox="0 0 612 792" enable-background="new 0 0 612 792" xml:space="preserve">
<path fill="#FFFFFF" d="M41.692,198.074h528.615c11.427,0,21.851,4.697,29.393,12.24c7.603,7.542,12.3,17.99,12.3,29.453v312.479
	c0,11.439-4.71,21.887-12.252,29.429l-0.813,0.741c-7.483,7.112-17.583,11.511-28.628,11.511H41.692
	c-11.415,0-21.85-4.697-29.417-12.264C4.698,574.144,0,563.721,0,552.245V239.767c0-11.427,4.698-21.838,12.24-29.405l0.047-0.048
	C19.878,202.76,30.277,198.074,41.692,198.074z M320.068,333.921c-5.594,0-10.136-6.048-10.136-13.507
	c0-7.471,4.542-13.519,10.136-13.519h143.928c5.595,0,10.137,6.048,10.137,13.519c0,7.458-4.542,13.507-10.137,13.507H320.068z
	 M320.068,479.702c-5.594,0-10.136-6.049-10.136-13.508c0-7.458,4.542-13.519,10.136-13.519h214.559
	c5.595,0,10.137,6.061,10.137,13.519c0,7.459-4.542,13.508-10.137,13.508H320.068z M320.068,406.812
	c-5.594,0-10.136-6.048-10.136-13.507s4.542-13.507,10.136-13.507h200.67c5.594,0,10.136,6.048,10.136,13.507
	s-4.542,13.507-10.136,13.507H320.068z M208.654,430.599c11.319,9.753,32.847,6.825,44.944,13.578
	c3.849,2.151,7.339,4.889,10.136,8.583c6.933,9.155,7.471,12.503,10.112,23.679c-0.622,6.586-4.363,10.388-11.714,10.949H93.39
	c-7.351-0.562-11.092-4.363-11.714-10.949c2.642-11.176,3.18-14.523,10.124-23.679c2.797-3.706,6.275-6.432,10.125-8.583
	c11.905-6.634,32.584-3.753,44.382-13.112c1.781-3.861,3.586-9.335,4.722-12.79l0.478-1.422c1.315-3.933-6.455-11.619-9.061-15.755
	l-9.658-15.348c-3.526-5.271-5.367-10.088-5.475-14.033c-0.06-1.865,0.263-3.55,0.944-5.021c0.717-1.554,1.829-2.857,3.323-3.861
	c0.693-0.466,1.482-0.86,2.343-1.195c-0.634-8.319-0.861-14.654-0.454-23.44c0.203-2.08,0.598-4.172,1.183-6.251
	c3.538-12.635,14.392-21.731,26.799-26.01c6.013-2.08,3.694-7.04,9.766-6.706c14.415,0.789,36.66,10.077,45.194,19.926
	c11.977,13.806,8.881,26.632,8.487,43.485v-0.012c2.678,0.813,4.387,2.51,5.092,5.271c0.777,3.036-0.06,7.339-2.642,13.184h-0.012
	c-0.048,0.108-0.096,0.215-0.167,0.311l-10.997,18.121c-4.244,6.992-8.546,13.997-14.296,19.376
	c-0.275,0.263-0.562,0.514-0.849,0.765c0.836,1.159,1.805,2.582,2.845,4.112C205.367,425.973,207.016,428.387,208.654,430.599
	L208.654,430.599z M570.308,222.387H41.692c-4.793,0-9.144,1.948-12.264,5.068l-0.048,0.048c-3.251,3.253-5.074,7.665-5.068,12.264
	v312.479c0,4.745,1.973,9.097,5.128,12.252c3.229,3.285,7.646,5.13,12.252,5.116h528.615c4.519,0,8.666-1.757,11.773-4.626
	l0.479-0.502c3.155-3.155,5.128-7.507,5.128-12.24V239.767c0-4.757-1.973-9.108-5.128-12.264
	C579.324,224.227,574.911,222.384,570.308,222.387z"/>
</svg>
