<?xml version="1.0" encoding="utf-8"?>
<!-- Generator: Adobe Illustrator 16.0.0, SVG Export Plug-In . SVG Version: 6.00 Build 0)  -->
<!DOCTYPE svg PUBLIC "-//W3C//DTD SVG 1.1//EN" "http://www.w3.org/Graphics/SVG/1.1/DTD/svg11.dtd">
<svg version="1.1" id="Layer_1" xmlns="http://www.w3.org/2000/svg" xmlns:xlink="http://www.w3.org/1999/xlink" x="0px" y="0px"
	 width="48px" height="48px" viewBox="0 0 48 48" enable-background="new 0 0 48 48" xml:space="preserve">
<path fill="#FFFFFF" d="M14.2,34.15h3V20.4h-3V34.15z M22.5,34.15h3v-20.3h-3V34.15z M30.8,34.15h3v-7.4h-3V34.15z M9,42
	c-0.8,0-1.5-0.3-2.1-0.9C6.3,40.5,6,39.8,6,39V9c0-0.8,0.3-1.5,0.9-2.1S8.2,6,9,6h30c0.8,0,1.5,0.3,2.1,0.9C41.7,7.5,42,8.2,42,9v30
	c0,0.8-0.3,1.5-0.9,2.1C40.5,41.7,39.8,42,39,42H9z M9,39h30l0,0l0,0V9l0,0l0,0H9l0,0l0,0V39L9,39L9,39z M9,39L9,39L9,39V9l0,0l0,0
	l0,0l0,0V39L9,39L9,39z"/>
</svg>
