<?xml version="1.0" encoding="utf-8"?>
<!-- Generator: Adobe Illustrator 16.0.0, SVG Export Plug-In . SVG Version: 6.00 Build 0)  -->
<!DOCTYPE svg PUBLIC "-//W3C//DTD SVG 1.1//EN" "http://www.w3.org/Graphics/SVG/1.1/DTD/svg11.dtd">
<svg version="1.1" id="Layer_1" xmlns="http://www.w3.org/2000/svg" xmlns:xlink="http://www.w3.org/1999/xlink" x="0px" y="0px"
	 width="612px" height="792px" viewBox="0 0 612 792" enable-background="new 0 0 612 792" xml:space="preserve">
<title>computer-user</title>
<path fill="#FFFFFF" d="M305.63,663.021c17.612-0.031,31.915,14.221,31.946,31.833c0.032,17.612-14.221,31.915-31.833,31.946
	c-17.612,0.031-31.915-14.221-31.947-31.833c0-0.019,0-0.037,0-0.057C273.797,677.32,288.04,663.052,305.63,663.021z
	 M223.798,481.306c41.457,46.582,135.361,38.382,170.042,0c-8.678-10.31-16.704-21.15-24.031-32.46l-4.784-6.947
	c-17.01,11.502-37.156,17.469-57.687,17.084c-23.074,0.17-45.451-7.908-63.096-22.778c-4.727,14.122-11.39,33.541-18.337,42.823
	c-0.6,0.781-1.31,1.472-2.107,2.05V481.306z M56.946,563.877c-12.563,0.674-22.2,11.403-21.526,23.966
	c0.046,0.862,0.141,1.721,0.285,2.571l20.102,155.463H4.556c0-83.027-29.441-184.847,57.458-233.479
	c32.346-18.053,115.715-24.146,152.046-48.006c6.081-13.062,11.238-26.534,15.432-40.318c0.399-1.253-0.285,0.798,0.342-1.082
	c-13.044-14.889-24.673-30.96-34.737-48.005l-29.954-47.436c-10.99-16.344-16.685-31.32-17.083-43.564
	c-0.19-5.441,0.922-10.85,3.246-15.774c2.258-4.866,5.827-9.007,10.308-11.958c2.269-1.493,4.694-2.733,7.232-3.702
	c-2.072-28.424-2.547-56.942-1.424-85.419c0.688-6.565,1.926-13.061,3.702-19.419c11.104-38.951,44.646-67.424,83.142-80.75
	c18.678-6.435,11.446-21.811,30.466-20.842c44.76,2.449,113.893,31.264,140.259,61.844c37.129,42.823,27.562,95.555,26.309,148.06
	l0,0c7.799,2.063,13.822,8.261,15.66,16.116c2.392,9.453,0,22.779-8.257,40.944l0,0c0,0,0,0.626-0.513,0.968l-34.168,56.206
	c-13.154,21.697-26.536,43.393-44.36,60.135l-0.911,0.797l5.694,7.973c5.694,8.713,12.642,18.621,18.906,26.366
	c37.129,22.778,118.732,29.271,150.68,47.037c79.725,44.532,52.561,154.495,56.945,233.479h-50.738l20.102-155.463
	c2.094-12.404-6.265-24.158-18.67-26.252c-0.851-0.144-1.709-0.239-2.571-0.285L56.946,563.877z M186.1,266.562
	c-5.347-0.079-10.618,1.278-15.262,3.929c-1.866,1.252-3.361,2.983-4.328,5.011c-1.05,2.541-1.517,5.285-1.367,8.029
	c0.285,9.111,5.068,21.013,14.293,34.737l0,0l0,0l29.954,47.664c12.016,19.077,24.657,38.553,40.261,52.846
	c15.464,15.097,36.246,23.504,57.857,23.405c22.688,0.42,44.597-8.278,60.818-24.146c16.173-15.147,28.872-35.819,41.457-56.547
	l33.712-55.58c6.321-14.35,8.6-23.974,7.176-29.555c-0.854-3.36-4.556-5.012-10.877-5.353c-1.367,0-2.733,0-4.101,0
	c-1.574-0.082-3.151-0.082-4.727,0c-0.869,0.115-1.75,0.115-2.619,0c-3.084,0.139-6.175-0.033-9.226-0.513l11.39-51.251
	c-85.761,13.496-149.939-50.227-240.598-12.756l6.549,60.534C193.003,267.216,189.53,267.063,186.1,266.562z"/>
</svg>
