<?xml version="1.0" encoding="utf-8"?>
<!-- Generator: Adobe Illustrator 16.0.0, SVG Export Plug-In . SVG Version: 6.00 Build 0)  -->
<!DOCTYPE svg PUBLIC "-//W3C//DTD SVG 1.1//EN" "http://www.w3.org/Graphics/SVG/1.1/DTD/svg11.dtd">
<svg version="1.1" id="Layer_1" xmlns="http://www.w3.org/2000/svg" xmlns:xlink="http://www.w3.org/1999/xlink" x="0px" y="0px"
	 width="48px" height="48px" viewBox="0 0 48 48" enable-background="new 0 0 48 48" xml:space="preserve">
<path fill="#FFFFFF" d="M36.5,28v-6.5H30v-3h6.5V12h3v6.5H46v3h-6.5V28H36.5z M18,23.95c-2.2,0-4-0.7-5.4-2.1s-2.1-3.2-2.1-5.4
	c0-2.2,0.7-4,2.1-5.4c1.4-1.4,3.2-2.1,5.4-2.1s4,0.7,5.4,2.1c1.4,1.4,2.1,3.2,2.1,5.4c0,2.2-0.7,4-2.1,5.4S20.2,23.95,18,23.95z
	 M2,40v-4.7c0-1.167,0.3-2.225,0.9-3.175S4.333,30.467,5.4,30c2.5-1.1,4.725-1.875,6.675-2.325C14.025,27.225,16,27,18,27
	s3.975,0.225,5.925,0.675c1.95,0.45,4.159,1.226,6.625,2.325c1.067,0.5,1.909,1.217,2.525,2.15S34,34.133,34,35.3V40H2z M5,37h26
	v-1.7c0-0.533-0.133-1.042-0.4-1.524c-0.266-0.484-0.684-0.842-1.25-1.075c-2.333-1.134-4.324-1.866-5.975-2.2
	C21.725,30.166,19.933,30,18,30s-3.725,0.175-5.375,0.525C10.975,30.875,8.967,31.6,6.6,32.7c-0.5,0.233-0.892,0.591-1.175,1.075
	C5.142,34.258,5,34.767,5,35.3V37z M18,20.95c1.3,0,2.375-0.425,3.225-1.275c0.85-0.85,1.275-1.925,1.275-3.225
	c0-1.3-0.425-2.375-1.275-3.225S19.3,11.95,18,11.95s-2.375,0.425-3.225,1.275S13.5,15.15,13.5,16.45c0,1.3,0.425,2.375,1.275,3.225
	C15.625,20.525,16.7,20.95,18,20.95z M18,16.45L18,16.45L18,16.45L18,16.45L18,16.45L18,16.45L18,16.45L18,16.45L18,16.45z M18,30
	L18,30L18,30L18,30L18,30L18,30L18,30L18,30L18,30z"/>
</svg>
