<?xml version="1.0" encoding="utf-8"?>
<!-- Generator: Adobe Illustrator 16.0.0, SVG Export Plug-In . SVG Version: 6.00 Build 0)  -->
<!DOCTYPE svg PUBLIC "-//W3C//DTD SVG 1.1//EN" "http://www.w3.org/Graphics/SVG/1.1/DTD/svg11.dtd">
<svg version="1.1" id="Layer_1" xmlns="http://www.w3.org/2000/svg" xmlns:xlink="http://www.w3.org/1999/xlink" x="0px" y="0px"
	 width="122.879px" height="119.799px" viewBox="0 0 122.879 119.799" enable-background="new 0 0 122.879 119.799"
	 xml:space="preserve">
<g>
	<path fill="#FFFBEB" d="M49.988,0h0.016v0.007C63.803,0.011,76.298,5.608,85.34,14.652c9.027,9.031,14.619,21.515,14.628,35.303
		h0.007v0.033v0.04h-0.007c-0.005,5.557-0.917,10.905-2.594,15.892c-0.281,0.837-0.575,1.642-0.877,2.409v0.007
		c-1.446,3.66-3.315,7.12-5.547,10.308l29.082,26.139l0.018,0.016l0.157,0.146l0.011,0.011c1.642,1.563,2.536,3.655,2.649,5.78
		c0.109,2.1-0.543,4.248-1.979,5.971l-0.012,0.016l-0.175,0.203l-0.035,0.035l-0.146,0.16l-0.017,0.021
		c-1.565,1.642-3.653,2.533-5.78,2.646c-2.097,0.11-4.246-0.54-5.971-1.978l-0.016-0.012l-0.203-0.175l-0.029-0.024L78.762,90.865
		c-0.881,0.62-1.779,1.209-2.688,1.765c-1.233,0.755-2.51,1.467-3.813,2.115c-6.699,3.342-14.27,5.222-22.273,5.222v0.007h-0.016
		v-0.007c-13.799-0.004-26.296-5.601-35.338-14.645C5.605,76.291,0.016,63.806,0.007,50.021H0v-0.033v-0.016h0.007
		c0.004-13.799,5.601-26.296,14.645-35.338C23.683,5.608,36.167,0.016,49.955,0.007V0H49.988L49.988,0z M50.004,11.21v0.007h-0.016
		h-0.033V11.21c-10.686,0.007-20.372,4.35-27.384,11.359C15.56,29.578,11.213,39.274,11.21,49.973h0.007v0.016v0.033H11.21
		c0.007,10.686,4.347,20.368,11.359,27.381c7.009,7.012,16.705,11.359,27.403,11.361v-0.008h0.016h0.033v0.008
		c10.686-0.008,20.368-4.349,27.381-11.359c7.012-7.01,11.359-16.702,11.361-27.4h-0.007v-0.016v-0.033h0.007
		c-0.007-10.686-4.351-20.372-11.359-27.384C70.396,15.56,60.703,11.213,50.004,11.21L50.004,11.21z"/>
</g>
</svg>
