<?xml version="1.0" encoding="utf-8"?>
<!-- Generator: Adobe Illustrator 16.0.0, SVG Export Plug-In . SVG Version: 6.00 Build 0)  -->
<!DOCTYPE svg PUBLIC "-//W3C//DTD SVG 1.1//EN" "http://www.w3.org/Graphics/SVG/1.1/DTD/svg11.dtd">
<svg version="1.1" id="Layer_1" xmlns="http://www.w3.org/2000/svg" xmlns:xlink="http://www.w3.org/1999/xlink" x="0px" y="0px"
	 width="612px" height="792px" viewBox="0 0 612 792" enable-background="new 0 0 612 792" xml:space="preserve">
<g>
	<path fill="#FFAC42" stroke="#000000" stroke-miterlimit="10" d="M30.48,244.345C13.646,244.345,0,230.698,0,213.914
		c0-16.834,13.646-30.48,30.48-30.48h551.089c16.834,0,30.48,13.646,30.48,30.48s-13.646,30.48-30.48,30.48H30.48V244.345z
		 M230.994,608.566c-16.834,0-30.48-13.646-30.48-30.48s13.646-30.48,30.48-30.48H581.52c16.834,0,30.48,13.646,30.48,30.48
		s-13.646,30.48-30.48,30.48H230.994L230.994,608.566z M30.48,487.192c-16.834,0-30.48-13.646-30.48-30.48s13.646-30.48,30.48-30.48
		h551.089c16.834,0,30.48,13.646,30.48,30.48s-13.646,30.48-30.48,30.48H30.48L30.48,487.192z M230.994,365.769
		c-16.834,0-30.48-13.646-30.48-30.48s13.646-30.48,30.48-30.48H581.52c16.834,0,30.48,13.646,30.48,30.48
		s-13.646,30.48-30.48,30.48H230.994L230.994,365.769z"/>
</g>
</svg>
